<?xml version="1.0" encoding="UTF-8" standalone="no"?>
<!-- Created with Inkscape (http://www.inkscape.org/) -->

<svg
   width="1314.8583"
   height="680.31494"
   viewBox="0 0 347.88898 180"
   version="1.1"
   id="svg5"
   inkscape:version="1.1.1 (3bf5ae0d25, 2021-09-20)"
   sodipodi:docname="logo prostokąt.svg"
   inkscape:export-filename="C:\Users\USER\Desktop\logo strony.png"
   inkscape:export-xdpi="96"
   inkscape:export-ydpi="96"
   xmlns:inkscape="http://www.inkscape.org/namespaces/inkscape"
   xmlns:sodipodi="http://sodipodi.sourceforge.net/DTD/sodipodi-0.dtd"
   xmlns:xlink="http://www.w3.org/1999/xlink"
   xmlns="http://www.w3.org/2000/svg"
   xmlns:svg="http://www.w3.org/2000/svg">
  <sodipodi:namedview
     id="namedview7"
     pagecolor="#ffffff"
     bordercolor="#666666"
     borderopacity="1.0"
     inkscape:pageshadow="2"
     inkscape:pageopacity="0.0"
     inkscape:pagecheckerboard="0"
     inkscape:document-units="px"
     showgrid="false"
     width="1133.8583px"
     inkscape:zoom="0.64"
     inkscape:cx="403.125"
     inkscape:cy="196.09375"
     inkscape:window-width="1440"
     inkscape:window-height="837"
     inkscape:window-x="-8"
     inkscape:window-y="-8"
     inkscape:window-maximized="1"
     inkscape:current-layer="layer1"
     units="px"
     guidecolor="#000000"
     guideopacity="0.9254902" />
  <defs
     id="defs2">
    <color-profile
       name="sRGB-IEC61966-2.1"
       xlink:href="../../../../WINDOWS/system32/spool/drivers/color/sRGB%20Color%20Space%20Profile.icm"
       id="color-profile72116" />
    <color-profile
       name="sRGB-IEC61966-2.1"
       xlink:href="../../../../WINDOWS/system32/spool/drivers/color/sRGB%20Color%20Space%20Profile.icm"
       id="color-profile72118" />
    <rect
       x="192.57516"
       y="385.18079"
       width="1051.1749"
       height="394.50671"
       id="rect3018" />
    <linearGradient
       inkscape:collect="always"
       id="linearGradient249882">
      <stop
         style="stop-color:#666666;stop-opacity:1"
         offset="0"
         id="stop249878" />
      <stop
         style="stop-color:#1a1a00;stop-opacity:0"
         offset="1"
         id="stop249880" />
    </linearGradient>
    <linearGradient
       inkscape:collect="always"
       id="linearGradient232779">
      <stop
         style="stop-color:#f2b300;stop-opacity:0"
         offset="0"
         id="stop232775" />
      <stop
         style="stop-color:#fc7314;stop-opacity:1"
         offset="1"
         id="stop232777" />
    </linearGradient>
    <linearGradient
       inkscape:collect="always"
       id="linearGradient203665">
      <stop
         style="stop-color:#000000;stop-opacity:1"
         offset="0"
         id="stop203661" />
      <stop
         style="stop-color:#080a58;stop-opacity:1"
         offset="1"
         id="stop203663" />
    </linearGradient>
    <linearGradient
       inkscape:collect="always"
       id="linearGradient194729">
      <stop
         style="stop-color:#000484;stop-opacity:1;"
         offset="0"
         id="stop194725" />
      <stop
         style="stop-color:#000000;stop-opacity:1"
         offset="1"
         id="stop194727" />
    </linearGradient>
    <linearGradient
       inkscape:collect="always"
       id="linearGradient167091">
      <stop
         style="stop-color:#000484;stop-opacity:1"
         offset="0"
         id="stop167087" />
      <stop
         style="stop-color:#141414;stop-opacity:1"
         offset="1"
         id="stop167089" />
    </linearGradient>
    <linearGradient
       inkscape:collect="always"
       id="linearGradient161664">
      <stop
         style="stop-color:#f2b300;stop-opacity:1;"
         offset="0"
         id="stop161660" />
      <stop
         style="stop-color:#ff621a;stop-opacity:1"
         offset="1"
         id="stop161662" />
    </linearGradient>
    <linearGradient
       inkscape:collect="always"
       id="linearGradient148789">
      <stop
         style="stop-color:#000000;stop-opacity:1;"
         offset="0"
         id="stop148785" />
      <stop
         style="stop-color:#000000;stop-opacity:0;"
         offset="1"
         id="stop148787" />
    </linearGradient>
    <linearGradient
       inkscape:collect="always"
       id="linearGradient145712">
      <stop
         style="stop-color:#000000;stop-opacity:1"
         offset="0"
         id="stop145708" />
      <stop
         style="stop-color:#000000;stop-opacity:0;"
         offset="1"
         id="stop145710" />
    </linearGradient>
    <linearGradient
       id="linearGradient134941"
       inkscape:swatch="solid">
      <stop
         style="stop-color:#000000;stop-opacity:1;"
         offset="0"
         id="stop134939" />
    </linearGradient>
    <linearGradient
       id="linearGradient132637"
       inkscape:swatch="gradient">
      <stop
         style="stop-color:#0000ff;stop-opacity:1;"
         offset="0"
         id="stop132633" />
      <stop
         style="stop-color:#000000;stop-opacity:0;"
         offset="1"
         id="stop132635" />
    </linearGradient>
    <linearGradient
       id="linearGradient123814"
       inkscape:swatch="gradient">
      <stop
         style="stop-color:#000000;stop-opacity:1"
         offset="0"
         id="stop123810" />
      <stop
         style="stop-color:#000000;stop-opacity:0;"
         offset="1"
         id="stop123812" />
    </linearGradient>
    <linearGradient
       id="linearGradient123778"
       inkscape:swatch="solid">
      <stop
         style="stop-color:#000000;stop-opacity:1;"
         offset="0"
         id="stop123776" />
    </linearGradient>
    <linearGradient
       inkscape:collect="always"
       xlink:href="#linearGradient145712"
       id="linearGradient145714"
       x1="86.48983"
       y1="91.124207"
       x2="147.5706"
       y2="155.93657"
       gradientUnits="userSpaceOnUse"
       gradientTransform="translate(-13.758336,-14.287503)" />
    <linearGradient
       inkscape:collect="always"
       xlink:href="#linearGradient148789"
       id="linearGradient148791"
       x1="42.12455"
       y1="147.77153"
       x2="53.467422"
       y2="151.93718"
       gradientUnits="userSpaceOnUse"
       gradientTransform="translate(-13.758336,-14.287503)" />
    <linearGradient
       inkscape:collect="always"
       xlink:href="#linearGradient123814"
       id="linearGradient158110"
       gradientUnits="userSpaceOnUse"
       x1="22.097643"
       y1="139.33926"
       x2="104.3604"
       y2="161.36398"
       gradientTransform="translate(-13.758336,-14.287503)" />
    <linearGradient
       inkscape:collect="always"
       xlink:href="#linearGradient161664"
       id="linearGradient161666"
       x1="125.51402"
       y1="55.252876"
       x2="156.77922"
       y2="71.330811"
       gradientUnits="userSpaceOnUse"
       gradientTransform="translate(-13.758336,-14.287503)" />
    <linearGradient
       inkscape:collect="always"
       xlink:href="#linearGradient194729"
       id="linearGradient194731"
       x1="69.579422"
       y1="134.58066"
       x2="69.365082"
       y2="126.98017"
       gradientUnits="userSpaceOnUse"
       gradientTransform="translate(-13.758336,-14.287503)" />
    <linearGradient
       inkscape:collect="always"
       xlink:href="#linearGradient203665"
       id="linearGradient203667"
       x1="76.659004"
       y1="126.34258"
       x2="84.225212"
       y2="130.91017"
       gradientUnits="userSpaceOnUse"
       gradientTransform="translate(-13.758336,-14.287503)" />
    <radialGradient
       inkscape:collect="always"
       xlink:href="#linearGradient167091"
       id="radialGradient227345"
       cx="86.016388"
       cy="58.459324"
       fx="86.016388"
       fy="58.459324"
       r="2.7813661"
       gradientTransform="matrix(0.82885211,-0.7338235,1.0642627,1.2020825,-60.224501,38.337125)"
       gradientUnits="userSpaceOnUse" />
    <linearGradient
       inkscape:collect="always"
       xlink:href="#linearGradient232779"
       id="linearGradient232781"
       x1="116.3438"
       y1="77.94648"
       x2="125.59299"
       y2="53.537254"
       gradientUnits="userSpaceOnUse"
       gradientTransform="translate(-13.758336,-14.287503)" />
    <linearGradient
       inkscape:collect="always"
       xlink:href="#linearGradient249882"
       id="linearGradient249884"
       x1="23.45904"
       y1="128.35983"
       x2="66.683365"
       y2="95.358459"
       gradientUnits="userSpaceOnUse"
       gradientTransform="translate(-13.758336,-14.287503)" />
  </defs>
  <g
     inkscape:groupmode="layer"
     id="layer3"
     inkscape:label="logo"
     style="display:inline">
    <path
       style="opacity:1;fill:url(#linearGradient161666);fill-opacity:1;stroke:none;stroke-width:0.264583;stroke-linecap:butt;stroke-linejoin:miter;stroke-miterlimit:4;stroke-dasharray:none;stroke-opacity:0"
       d="m 76.839857,33.541661 c 0,0 2.883643,11.578074 0.50342,15.089968 3.713755,7.858107 6.71181,6.930581 6.71181,6.930581 0,0 50.333293,-0.575601 56.732123,9.661996 2.79482,-4.855115 1.25047,-11.574421 -0.81439,-14.056718 -2.06486,-2.482294 -22.50971,-23.99778 -63.132963,-17.625827 z"
       id="path71" />
    <path
       style="opacity:1;mix-blend-mode:normal;fill:url(#linearGradient145714);fill-opacity:1;stroke:none;stroke-width:0.264583;stroke-linecap:butt;stroke-linejoin:miter;stroke-miterlimit:4;stroke-dasharray:none;stroke-opacity:0"
       d="m 76.839857,33.541661 c 0,0 -0.721733,-1.964344 -3.821859,-2.483851 -3.100128,-0.519506 -6.201445,0.304576 -7.959723,1.74996 -1.758278,1.445387 -5.274651,4.129453 -6.412812,5.575385 -1.138161,1.445934 -4.449199,5.680474 -4.969984,10.227543 -0.520787,4.547068 -0.529836,14.778998 -0.529836,14.778998 -7.549327,5.160968 -12.61718,9.187249 -23.894246,22.303095 -11.277066,13.115778 -9.253884,62.726949 -9.253884,62.726949 0,0 8.641316,-25.95571 19.251412,-31.40226 10.719173,-5.50254 26.011175,-8.05047 32.849233,-12.88703 6.886114,-4.870544 8.715788,-6.506535 14.51433,-18.696988 5.798517,-12.190513 -2.557401,-29.871252 -2.557401,-29.871252 0,0 -3.152947,0.772358 -6.71181,-6.930581 2.640798,-5.992133 -0.50342,-15.089968 -0.50342,-15.089968 v 0"
       id="path73"
       sodipodi:nodetypes="csssscscssscccc" />
    <path
       style="fill:url(#linearGradient148791);fill-opacity:1;stroke:none;stroke-width:0.264583px;stroke-linecap:butt;stroke-linejoin:miter;stroke-opacity:0"
       d="m 31.904798,123.88396 c 0,0 -2.59863,16.74087 -1.155439,20.97962 -4.124423,-10.95906 -3.855073,-12.67808 -3.855073,-12.67808 0,0 3.894167,-6.58992 5.010512,-8.30154 z"
       id="path75"
       sodipodi:nodetypes="cccc" />
    <path
       style="opacity:1;fill:none;stroke:none;stroke-width:0.264583;stroke-linecap:butt;stroke-linejoin:miter;stroke-miterlimit:4;stroke-dasharray:none;stroke-opacity:0"
       d="m 77.343277,48.631629 c 0,0 22.739003,-1.633535 37.618343,2.307034 14.87933,3.94057 22.52543,6.221098 25.82559,14.285543"
       id="path77" />
    <path
       style="opacity:1;fill:#ffffff;stroke:none;stroke-width:0.264583;stroke-linecap:butt;stroke-linejoin:miter;stroke-miterlimit:4;stroke-dasharray:none;stroke-opacity:0"
       d="M 88.427366,78.407071 C 73.908318,76.120465 64.789151,59.122489 63.642582,56.060374 63.14964,54.743884 61.534589,43.760062 69.496322,39.73634 c 7.961734,-4.023723 7.343535,-6.194679 7.343535,-6.194679 0,0 3.103327,9.970216 0.50342,15.089968 3.100452,7.239115 6.71181,6.930581 6.71181,6.930581 0,0 6.436317,15.56393 4.372279,22.844861 z"
       id="path79"
       sodipodi:nodetypes="csscccc" />
    <path
       style="opacity:1;fill:url(#radialGradient227345);fill-opacity:1;stroke:none;stroke-width:0.264583;stroke-linecap:butt;stroke-linejoin:miter;stroke-miterlimit:4;stroke-dasharray:none;stroke-opacity:0"
       d="m 72.388967,41.134163 c 0,0 -1.602563,0.670377 -1.449041,2.375834 0.153522,1.705459 0.488093,2.662022 2.451476,3.025494 1.963383,0.363471 2.6633,-1.470265 2.819106,-2.426324 0.141546,-0.868561 -0.649409,-2.411302 -1.392748,-2.972856 -0.694174,-0.524412 -2.40462,-0.05045 -2.428793,-0.0021 z"
       id="path81"
       sodipodi:nodetypes="csssscc" />
    <path
       style="opacity:1;fill:url(#linearGradient194731);fill-opacity:1;stroke:none;stroke-width:0.264583;stroke-linecap:butt;stroke-linejoin:miter;stroke-miterlimit:4;stroke-dasharray:none;stroke-opacity:0"
       d="m 53.775029,111.34592 v 0 l 0.100961,1.89888 c 0,0 -11.183213,1.36029 -11.919651,7.71774 8.921888,-6.71561 15.497864,-5.10259 15.497864,-5.10259 0,0 10.595588,1.32542 13.149368,5.93182 -1.161873,-8.4054 -12.415904,-9.00001 -12.415904,-9.00001 -0.04936,-0.83383 -0.04391,-2.44291 -0.09327,-2.66591 z"
       id="path83"
       sodipodi:nodetypes="cccccccc" />
    <path
       style="opacity:1;fill:url(#linearGradient203667);fill-opacity:1;stroke:none;stroke-width:0.264583;stroke-linecap:butt;stroke-linejoin:miter;stroke-miterlimit:4;stroke-dasharray:none;stroke-opacity:0"
       d="m 58.187668,112.79176 c 0,0 8.092821,-1.1764 12.842801,3.63371 -1.653098,-0.62158 -3.66866,-0.41665 -3.66866,-0.41665 0.01906,0.007 -4.927075,-3.20223 -9.174141,-3.21706 z"
       id="path85"
       sodipodi:nodetypes="cccc" />
    <path
       style="opacity:1;mix-blend-mode:normal;fill:url(#linearGradient158110);fill-opacity:1;stroke:none;stroke-width:0.264583;stroke-linecap:butt;stroke-linejoin:miter;stroke-miterlimit:4;stroke-dasharray:none;stroke-opacity:1"
       d="m 20.148731,123.09839 c 0,0 33.481623,-9.00084 46.523732,-31.210132 6.940728,-18.183939 1.7192,-20.645778 1.7192,-20.645778 C 56.714622,69.165095 40.838158,72.990632 31.32083,83.007445 21.803503,93.024222 8.3393022,125.05167 8.3393022,125.05167 Z"
       id="path87"
       sodipodi:nodetypes="cccscc" />
    <path
       style="opacity:1;fill:#000000;stroke:none;stroke-width:0.264583;stroke-linecap:butt;stroke-linejoin:miter;stroke-miterlimit:4;stroke-dasharray:none;stroke-opacity:0"
       d="m 131.17326,55.925869 c 0,0 -6.86701,-3.002418 -5.76671,-7.605581 1.10029,-4.603165 7.23584,-0.870579 9.9385,0.666523 2.70266,1.537102 6.64492,6.217809 6.86274,7.825796 0.21782,1.607986 -0.31125,7.105592 -1.42058,8.411599 -1.56216,-3.134096 -3.91566,-6.95469 -9.61395,-9.298337 z"
       id="path89" />
    <path
       style="fill:url(#linearGradient232781);fill-opacity:1;stroke:none;stroke-width:0.264583px;stroke-linecap:butt;stroke-linejoin:miter;stroke-opacity:0"
       d="m 77.343277,48.631629 c 0,0 56.698663,2.85228 63.443933,16.592577 0,0 1.17872,-8.801226 -56.732123,-9.661996 0,0 -4.477311,-0.576534 -6.71181,-6.930581 z"
       id="path228343" />
    <path
       style="fill:url(#linearGradient249884);fill-opacity:1;stroke:none;stroke-width:0.264583px;stroke-linecap:butt;stroke-linejoin:miter;stroke-opacity:1"
       d="m 8.3393022,125.05167 c 0,0 55.6738528,-10.5204 60.0523608,-53.809191 0,0 2.333836,14.890452 -1.7192,20.645779 -4.053036,5.755327 -7.153622,10.406182 -13.354794,14.643652 -6.201172,4.23747 -12.306324,10.30527 -22.737631,13.43587 -10.431307,3.13061 -10.431307,3.13061 -10.431307,3.13061 z"
       id="path248380" />
  </g>
  <g
     inkscape:groupmode="layer"
     id="layer1"
     inkscape:label="tekst">
    <text
       xml:space="preserve"
       transform="matrix(0.26458334,0,0,0.26458334,44.747652,-32.444532)"
       id="text3016"
       style="font-style:normal;font-variant:normal;font-weight:600;font-stretch:normal;font-size:96px;line-height:1.25;font-family:'Arial Black';-inkscape-font-specification:'Arial Black';font-variant-ligatures:normal;font-variant-caps:normal;font-variant-numeric:normal;font-variant-east-asian:normal;white-space:pre;shape-inside:url(#rect3018);fill:#131313;fill-opacity:0.968627;stroke:none"
       inkscape:export-filename="C:\Users\USER\Desktop\logo strony.png"
       inkscape:export-xdpi="96"
       inkscape:export-ydpi="96"><tspan
         x="192.57422"
         y="471.25322"
         id="tspan72186">Small<tspan
   style="fill:#ff9a03"
   id="tspan72184">&amp;</tspan>CleverLife</tspan></text>
  </g>
  <g
     inkscape:groupmode="layer"
     id="layer2"
     inkscape:label="tekst 1" />
</svg>
